<?xml version="1.0" standalone="no"?>
<!DOCTYPE svg PUBLIC "-//W3C//DTD SVG 20010904//EN"
 "http://www.w3.org/TR/2001/REC-SVG-20010904/DTD/svg10.dtd">
<svg version="1.0" xmlns="http://www.w3.org/2000/svg"
 width="260.000000pt" height="260.000000pt" viewBox="0 0 260.000000 260.000000"
 preserveAspectRatio="xMidYMid meet">
<metadata>
Created by potrace 1.11, written by Peter Selinger 2001-2013
</metadata>
<g transform="translate(0.000000,260.000000) scale(0.100000,-0.100000)"
fill="#000000" stroke="none">
<path d="M1870 1960 c-196 -42 -337 -126 -443 -265 -102 -134 -142 -267 -142
-470 1 -331 157 -566 439 -660 97 -32 149 -39 301 -39 153 -1 205 6 360 45 44
11 81 22 83 24 2 2 4 156 4 342 l0 338 -239 3 -239 2 0 -75 0 -76 131 1 c71 1
138 1 148 1 16 -1 17 -18 17 -211 l0 -210 -26 -11 c-50 -18 -99 -24 -224 -23
-150 0 -235 22 -329 85 -165 110 -239 279 -227 519 9 205 73 337 210 436 167
122 390 142 672 59 18 -6 23 2 42 67 15 54 18 74 9 80 -10 6 -65 21 -167 44
-14 4 -86 7 -160 9 -101 2 -156 -2 -220 -15z"/>
<path d="M34 1888 c13 -40 119 -360 237 -711 l214 -638 105 3 105 3 43 120
c24 66 60 163 80 215 19 52 49 136 67 185 31 85 162 442 274 748 28 76 51 141
51 143 0 2 -45 4 -99 4 -85 0 -100 -2 -106 -17 -71 -184 -363 -1049 -396
-1173 -12 -45 -12 -45 -19 -15 -27 113 -85 307 -180 600 -34 105 -84 258 -110
340 -27 83 -57 175 -67 205 l-18 55 -102 3 -102 3 23 -73z"/>
</g>
</svg>
